<svg version="1" xmlns="http://www.w3.org/2000/svg" width="682.667" height="682.667" viewBox="0 0 512.000000 512.000000"><path d="M237.5 9.6c-12.6.8-29.4 2.6-40.4 4.5C134.9 24.6 75.4 54.1 31.6 96l-8.9 8.5 16.1 16.1 16 16 9.4-8.4C148 52.9 264.2 34.4 367 80c24.6 10.8 50.5 27.9 72.7 47.8l10 9 16.3-16.3 16.2-16.2-12-10.8c-23-20.5-44.5-35.4-69.9-48.3-35.6-18.1-72.2-29.2-110.7-33.7-12.7-1.4-41.9-2.5-52.1-1.9z"/><path d="M237 102.7c-13.5 1.3-24.1 2.8-34 4.9-33.4 7.2-68.5 23.7-95.2 45C99.2 159.5 89 169 89 170.1c0 .8 20.3 21.4 28.2 28.7l3.8 3.4 7.2-6.4c15-13.2 27.1-21.2 45-29.8 66.7-31.9 148.5-19.8 202.9 29.9l7.6 6.9 16.4-16.4 16.4-16.5-5-4.5c-41.6-37.6-86.6-57.5-140.5-62.4-10.8-.9-26.1-1.1-34-.3z"/><path d="M216 212.5l-24.4 24.4 11.9.3 12 .3.3 37.1.2 37.2-62.2 49.8-62.3 49.9 24.8.3 24.7.2v99h74.9l.3-35.8.3-35.7 2.7-5.7c3.7-7.9 9.8-14.2 17.7-18.1 6-2.9 7.4-3.2 16.1-3.2 8.2 0 10.3.4 15.2 2.7 7.6 3.5 13.8 9.5 17.9 17l3.4 6.3.3 36.3.3 36.2H365v-99l24.8-.2 24.7-.3-62.3-49.9-62.2-49.8.2-37.2.3-37.1 12-.3 11.9-.3-24.4-24.4-24.5-24.5h-25L216 212.5zm41.7 26c1.2.3 3.4 2 4.8 3.6l2.5 3.1V287h-24v-41.8l2.6-3.1c2.5-3 7.5-5.2 10.4-4.6.8.2 2.5.6 3.7 1z"/></svg>